<?xml version="1.0" encoding="UTF-8"?>
<!DOCTYPE svg PUBLIC "-//W3C//DTD SVG 1.1//EN" "http://www.w3.org/Graphics/SVG/1.1/DTD/svg11.dtd">
<!-- Creator: CorelDRAW -->
<svg xmlns="http://www.w3.org/2000/svg" xml:space="preserve" width="49.838mm" height="50.3263mm" version="1.1" style="shape-rendering:geometricPrecision; text-rendering:geometricPrecision; image-rendering:optimizeQuality; fill-rule:evenodd; clip-rule:evenodd"
viewBox="0 0 1113.87 1124.79"
 xmlns:xlink="http://www.w3.org/1999/xlink"
 xmlns:xodm="http://www.corel.com/coreldraw/odm/2003">
 <defs>
  <style type="text/css">
   <![CDATA[
    .fil1 {fill:#003B70}
    .fil0 {fill:#D8261C}
   ]]>
  </style>
 </defs>
 <g id="Layer_x0020_1">
  <metadata id="CorelCorpID_0Corel-Layer"/>
  <g id="_2916285187968">
   <path class="fil0" d="M531.56 1116.8l141.83 -264.92c6.39,-11.93 7.97,-25.86 4.41,-38.92l-218.62 -801.81c-3.6,-13.19 -21.46,-15.21 -27.91,-3.16l-429.45 800.78c-5.39,10.07 1.9,22.25 13.33,22.25l221.85 0c5.58,0 10.69,-3.07 13.33,-7.98l97.66 -181.07c6.45,-12.05 24.32,-10.03 27.92,3.16l127.75 468.51c3.6,13.19 21.46,15.21 27.92,3.16z"/>
   <path class="fil1" d="M873.98 831.1l224.73 0c9.99,0 17.25,-9.5 14.61,-19.13l-183.84 -680.64c-3.6,-13.22 -21.5,-15.24 -27.97,-3.16l-141.77 264.8c-6.41,11.97 -7.99,25.93 -4.42,39.03l104.03 387.94c1.8,6.59 7.78,11.16 14.62,11.16z"/>
  </g>
 </g>
</svg>
